<svg width="824" height="722" viewBox="0 0 824 722" fill="none" xmlns="http://www.w3.org/2000/svg">
<path d="M440 256C440 270.912 429.703 283 417 283C404.297 283 394 270.912 394 256C414.5 256 404.297 256 417 256C429.703 256 417 256 440 256Z" fill="#D9D9D9"/>
<path d="M416.301 625L459.603 700H373L416.301 625Z" fill="#8E8E8E"/>
<path d="M479 250C441.169 250 464.621 250 416.721 250C416.721 250 396.368 250 354 250C354 199.211 381.64 169 416.279 169C450.919 169 479 199.211 479 250Z" fill="#D579C2"/>
<rect x="348" y="250" width="137" height="6" fill="#4DD8ED"/>
<rect x="274" y="464" width="287" height="183" fill="#C3C3C3"/>
<path d="M288 477.5H549V624.5H288V477.5Z" fill="black"/>
<rect y="700" width="824" height="22" rx="11" fill="#431B1C"/>
<path d="M174 633C174 632.448 174.448 632 175 632H229C229.552 632 230 632.448 230 633V695C230 697.761 227.761 700 225 700H179C176.239 700 174 697.761 174 695V633Z" fill="#454545"/>
<path d="M174 642V645.75C148.167 654.75 145.667 675 174 686.25L174 690C136.853 678.667 144.711 646.667 174 642Z" fill="#868686"/>
<path d="M189.37 646.507C190.045 646.507 190.61 646.592 191.065 646.762C191.52 646.932 191.952 647.182 192.363 647.512L191.635 648.36C191.31 648.085 190.965 647.89 190.6 647.775C190.24 647.655 189.863 647.595 189.468 647.595C188.903 647.595 188.38 647.73 187.9 648C187.42 648.265 187.033 648.707 186.738 649.327C186.448 649.942 186.303 650.777 186.303 651.832C186.303 652.857 186.44 653.68 186.715 654.3C186.995 654.92 187.373 655.367 187.848 655.642C188.323 655.917 188.853 656.055 189.438 656.055C190.018 656.055 190.493 655.967 190.863 655.792C191.238 655.617 191.563 655.417 191.838 655.192L192.513 656.047C192.198 656.352 191.788 656.617 191.283 656.842C190.778 657.063 190.158 657.173 189.423 657.173C188.588 657.173 187.83 656.967 187.15 656.557C186.475 656.147 185.94 655.547 185.545 654.757C185.15 653.962 184.953 652.987 184.953 651.832C184.953 650.672 185.153 649.697 185.553 648.908C185.958 648.117 186.495 647.52 187.165 647.115C187.84 646.71 188.575 646.507 189.37 646.507ZM195.762 645.802V650.182C196.072 649.767 196.452 649.457 196.902 649.253C197.357 649.042 197.817 648.937 198.282 648.937C199.052 648.937 199.614 649.142 199.969 649.552C200.324 649.962 200.502 650.532 200.502 651.262V657H199.242V651.292C199.242 650.817 199.132 650.472 198.912 650.257C198.692 650.037 198.347 649.927 197.877 649.927C197.577 649.927 197.292 649.995 197.022 650.13C196.752 650.265 196.509 650.432 196.294 650.632C196.079 650.832 195.902 651.037 195.762 651.247V657H194.502V645.937L195.762 645.802ZM209.151 655.275C209.151 655.59 209.203 655.82 209.308 655.965C209.413 656.11 209.576 656.217 209.796 656.287L209.488 657.173C209.148 657.128 208.851 657.02 208.596 656.85C208.341 656.675 208.156 656.412 208.041 656.062C207.756 656.427 207.401 656.705 206.976 656.895C206.551 657.08 206.081 657.173 205.566 657.173C204.776 657.173 204.153 656.95 203.698 656.505C203.243 656.06 203.016 655.47 203.016 654.735C203.016 653.92 203.333 653.295 203.968 652.86C204.603 652.425 205.521 652.207 206.721 652.207H207.883V651.547C207.883 650.977 207.716 650.575 207.381 650.34C207.051 650.1 206.591 649.98 206.001 649.98C205.741 649.98 205.436 650.012 205.086 650.077C204.736 650.137 204.356 650.24 203.946 650.385L203.616 649.432C204.101 649.252 204.556 649.125 204.981 649.05C205.406 648.975 205.811 648.937 206.196 648.937C207.181 648.937 207.918 649.167 208.408 649.627C208.903 650.082 209.151 650.702 209.151 651.487V655.275ZM205.888 656.212C206.278 656.212 206.651 656.115 207.006 655.92C207.361 655.72 207.653 655.445 207.883 655.095V653.062H206.743C205.873 653.062 205.258 653.212 204.898 653.512C204.543 653.812 204.366 654.215 204.366 654.72C204.366 655.21 204.491 655.582 204.741 655.837C204.996 656.087 205.378 656.212 205.888 656.212ZM216.487 649.102V656.002H218.715V657H212.79V656.002H215.227V650.1H212.865V649.102H216.487ZM215.482 645.405C215.762 645.405 215.985 645.49 216.15 645.66C216.32 645.83 216.405 646.037 216.405 646.282C216.405 646.537 216.32 646.752 216.15 646.927C215.985 647.097 215.762 647.182 215.482 647.182C215.217 647.182 215 647.097 214.83 646.927C214.66 646.752 214.575 646.537 214.575 646.282C214.575 646.037 214.66 645.83 214.83 645.66C215 645.49 215.217 645.405 215.482 645.405ZM191.163 670.275C191.163 670.59 191.215 670.82 191.32 670.965C191.425 671.11 191.588 671.217 191.808 671.287L191.5 672.173C191.16 672.128 190.863 672.02 190.608 671.85C190.353 671.675 190.168 671.412 190.053 671.062C189.768 671.427 189.413 671.705 188.988 671.895C188.563 672.08 188.093 672.173 187.578 672.173C186.788 672.173 186.165 671.95 185.71 671.505C185.255 671.06 185.028 670.47 185.028 669.735C185.028 668.92 185.345 668.295 185.98 667.86C186.615 667.425 187.533 667.207 188.733 667.207H189.895V666.547C189.895 665.977 189.728 665.575 189.393 665.34C189.063 665.1 188.603 664.98 188.013 664.98C187.753 664.98 187.448 665.012 187.098 665.077C186.748 665.137 186.368 665.24 185.958 665.385L185.628 664.432C186.113 664.252 186.568 664.125 186.993 664.05C187.418 663.975 187.823 663.937 188.208 663.937C189.193 663.937 189.93 664.167 190.42 664.627C190.915 665.082 191.163 665.702 191.163 666.487V670.275ZM187.9 671.212C188.29 671.212 188.663 671.115 189.018 670.92C189.373 670.72 189.665 670.445 189.895 670.095V668.062H188.755C187.885 668.062 187.27 668.212 186.91 668.512C186.555 668.812 186.378 669.215 186.378 669.72C186.378 670.21 186.503 670.582 186.753 670.837C187.008 671.087 187.39 671.212 187.9 671.212ZM195.762 664.102V669.697C195.762 670.217 195.869 670.592 196.084 670.822C196.299 671.052 196.634 671.167 197.089 671.167C197.524 671.167 197.934 671.045 198.319 670.8C198.709 670.55 199.012 670.255 199.227 669.915V664.102H200.487V672H199.414L199.309 670.935C198.999 671.335 198.617 671.642 198.162 671.857C197.707 672.068 197.247 672.173 196.782 672.173C196.017 672.173 195.444 671.97 195.064 671.565C194.689 671.155 194.502 670.582 194.502 669.847V664.102H195.762ZM203.571 672V671.032H204.801V665.07H203.571V664.102H205.761L205.993 665.97C206.298 665.32 206.668 664.817 207.103 664.463C207.538 664.107 208.113 663.93 208.828 663.93C209.048 663.93 209.243 663.947 209.413 663.982C209.588 664.012 209.766 664.052 209.946 664.102L209.578 665.227C209.413 665.182 209.263 665.15 209.128 665.13C208.993 665.105 208.838 665.092 208.663 665.092C208.058 665.092 207.538 665.307 207.103 665.737C206.668 666.167 206.321 666.817 206.061 667.687V671.032H207.666V672H203.571ZM208.731 666.772V665.055L208.858 664.102H209.946L209.766 666.772H208.731ZM189.078 686.085C189.473 686.085 189.84 686.02 190.18 685.89C190.525 685.76 190.843 685.595 191.133 685.395L191.747 686.22C191.403 686.515 190.988 686.747 190.503 686.917C190.018 687.088 189.543 687.173 189.078 687.173C188.293 687.173 187.623 687.005 187.068 686.67C186.518 686.33 186.098 685.855 185.808 685.245C185.518 684.63 185.373 683.91 185.373 683.085C185.373 682.295 185.518 681.587 185.808 680.962C186.103 680.332 186.525 679.837 187.075 679.477C187.63 679.117 188.303 678.937 189.093 678.937C189.598 678.937 190.07 679.015 190.51 679.17C190.955 679.32 191.363 679.547 191.733 679.852L191.118 680.692C190.783 680.457 190.445 680.282 190.105 680.167C189.77 680.047 189.428 679.987 189.078 679.987C188.398 679.987 187.838 680.242 187.398 680.752C186.958 681.262 186.738 682.04 186.738 683.085C186.738 683.785 186.838 684.357 187.038 684.802C187.243 685.242 187.52 685.567 187.87 685.777C188.225 685.982 188.628 686.085 189.078 686.085ZM197.509 678.937C198.254 678.937 198.877 679.107 199.377 679.447C199.882 679.782 200.259 680.257 200.509 680.872C200.764 681.487 200.892 682.212 200.892 683.047C200.892 683.852 200.762 684.565 200.502 685.185C200.242 685.805 199.859 686.292 199.354 686.647C198.854 686.998 198.234 687.173 197.494 687.173C196.754 687.173 196.132 687.003 195.627 686.662C195.122 686.322 194.739 685.845 194.479 685.23C194.224 684.61 194.097 683.887 194.097 683.062C194.097 682.247 194.227 681.53 194.487 680.91C194.747 680.29 195.129 679.807 195.634 679.463C196.144 679.112 196.769 678.937 197.509 678.937ZM197.509 679.965C196.829 679.965 196.314 680.217 195.964 680.722C195.619 681.222 195.447 682.002 195.447 683.062C195.447 684.102 195.617 684.875 195.957 685.38C196.302 685.885 196.814 686.137 197.494 686.137C198.174 686.137 198.684 685.885 199.024 685.38C199.369 684.875 199.542 684.097 199.542 683.047C199.542 681.997 199.372 681.222 199.032 680.722C198.692 680.217 198.184 679.965 197.509 679.965ZM208.221 675.765L209.481 675.922V687H208.378L208.258 685.957C207.963 686.377 207.623 686.685 207.238 686.88C206.858 687.075 206.451 687.173 206.016 687.173C205.331 687.173 204.766 687 204.321 686.655C203.876 686.31 203.546 685.83 203.331 685.215C203.116 684.595 203.008 683.877 203.008 683.062C203.008 682.272 203.131 681.567 203.376 680.947C203.621 680.322 203.973 679.832 204.433 679.477C204.898 679.117 205.456 678.937 206.106 678.937C206.561 678.937 206.961 679.017 207.306 679.177C207.651 679.332 207.956 679.562 208.221 679.867V675.765ZM206.436 679.95C205.776 679.95 205.268 680.207 204.913 680.722C204.558 681.237 204.381 682.017 204.381 683.062C204.381 683.742 204.453 684.312 204.598 684.772C204.743 685.232 204.956 685.577 205.236 685.807C205.521 686.037 205.868 686.152 206.278 686.152C206.728 686.152 207.111 686.025 207.426 685.77C207.746 685.515 208.011 685.227 208.221 684.907V680.962C208.006 680.642 207.746 680.395 207.441 680.22C207.136 680.04 206.801 679.95 206.436 679.95ZM213.48 683.497C213.505 684.107 213.622 684.607 213.832 684.997C214.042 685.382 214.32 685.667 214.665 685.852C215.01 686.032 215.385 686.122 215.79 686.122C216.195 686.122 216.56 686.062 216.885 685.942C217.215 685.822 217.552 685.645 217.897 685.41L218.49 686.242C218.12 686.532 217.697 686.76 217.222 686.925C216.752 687.09 216.27 687.173 215.775 687.173C215.01 687.173 214.357 687 213.817 686.655C213.277 686.31 212.865 685.83 212.58 685.215C212.3 684.595 212.16 683.877 212.16 683.062C212.16 682.262 212.302 681.552 212.587 680.932C212.872 680.312 213.272 679.825 213.787 679.47C214.302 679.115 214.91 678.937 215.61 678.937C216.275 678.937 216.847 679.095 217.327 679.41C217.807 679.72 218.175 680.165 218.43 680.745C218.69 681.32 218.82 682.007 218.82 682.807C218.82 682.942 218.817 683.07 218.812 683.19C218.807 683.305 218.8 683.407 218.79 683.497H213.48ZM215.625 679.972C215.04 679.972 214.55 680.18 214.155 680.595C213.765 681.01 213.542 681.652 213.487 682.522H217.605C217.59 681.677 217.405 681.042 217.05 680.617C216.695 680.187 216.22 679.972 215.625 679.972Z" fill="black"/>
<rect x="412" width="7" height="169" fill="black"/>
<g clip-path="url(#clip0_0_1)">
<path d="M550 478H289V625H550V478Z" fill="#1E1E1E"/>
<path d="M550 478H289V508H550V478Z" fill="#323233"/>
<path d="M304 499C307.314 499 310 496.314 310 493C310 489.686 307.314 487 304 487C300.686 487 298 489.686 298 493C298 496.314 300.686 499 304 499Z" fill="#FF5F56"/>
<path d="M324 499C327.314 499 330 496.314 330 493C330 489.686 327.314 487 324 487C320.686 487 318 489.686 318 493C318 496.314 320.686 499 324 499Z" fill="#FFBD2E"/>
<path d="M344 499C347.314 499 350 496.314 350 493C350 489.686 347.314 487 344 487C340.686 487 338 489.686 338 493C338 496.314 340.686 499 344 499Z" fill="#27C93F"/>
<path d="M550 508H289V533H550V508Z" fill="#252526"/>
<path d="M389 508H289V533H389V508Z" fill="#1E1E1E"/>
<path d="M314.92 525V518.455H315.926V525H314.92ZM315.432 517.364C315.236 517.364 315.067 517.297 314.925 517.163C314.786 517.03 314.716 516.869 314.716 516.682C314.716 516.494 314.786 516.334 314.925 516.2C315.067 516.067 315.236 516 315.432 516C315.628 516 315.795 516.067 315.935 516.2C316.077 516.334 316.148 516.494 316.148 516.682C316.148 516.869 316.077 517.03 315.935 517.163C315.795 517.297 315.628 517.364 315.432 517.364ZM318.774 521.062V525H317.768V518.455H318.74V519.477H318.825C318.978 519.145 319.211 518.878 319.524 518.676C319.836 518.472 320.24 518.369 320.734 518.369C321.177 518.369 321.565 518.46 321.897 518.642C322.23 518.821 322.488 519.094 322.673 519.46C322.858 519.824 322.95 520.284 322.95 520.841V525H321.944V520.909C321.944 520.395 321.811 519.994 321.544 519.707C321.277 519.418 320.91 519.273 320.444 519.273C320.123 519.273 319.836 519.342 319.583 519.482C319.333 519.621 319.136 519.824 318.991 520.091C318.846 520.358 318.774 520.682 318.774 521.062ZM327.259 525.136C326.714 525.136 326.232 524.999 325.815 524.723C325.397 524.445 325.07 524.053 324.835 523.547C324.599 523.038 324.481 522.438 324.481 521.744C324.481 521.057 324.599 520.46 324.835 519.955C325.07 519.449 325.398 519.058 325.819 518.783C326.239 518.507 326.725 518.369 327.276 518.369C327.702 518.369 328.039 518.44 328.286 518.582C328.536 518.722 328.727 518.881 328.857 519.06C328.991 519.236 329.094 519.381 329.168 519.494H329.254V516.273H330.259V525H329.288V523.994H329.168C329.094 524.114 328.989 524.264 328.853 524.446C328.717 524.625 328.522 524.786 328.269 524.928C328.016 525.067 327.68 525.136 327.259 525.136ZM327.396 524.233C327.799 524.233 328.14 524.128 328.418 523.918C328.697 523.705 328.908 523.411 329.053 523.036C329.198 522.658 329.271 522.222 329.271 521.727C329.271 521.239 329.2 520.811 329.058 520.445C328.915 520.075 328.705 519.788 328.427 519.584C328.148 519.376 327.805 519.273 327.396 519.273C326.969 519.273 326.614 519.382 326.33 519.601C326.049 519.817 325.837 520.111 325.695 520.483C325.556 520.852 325.487 521.267 325.487 521.727C325.487 522.193 325.558 522.616 325.7 522.997C325.844 523.375 326.058 523.676 326.339 523.901C326.623 524.122 326.975 524.233 327.396 524.233ZM334.985 525.136C334.354 525.136 333.81 524.997 333.353 524.719C332.898 524.438 332.548 524.045 332.3 523.543C332.056 523.037 331.934 522.449 331.934 521.778C331.934 521.108 332.056 520.517 332.3 520.006C332.548 519.491 332.891 519.091 333.332 518.804C333.775 518.514 334.292 518.369 334.883 518.369C335.224 518.369 335.56 518.426 335.893 518.54C336.225 518.653 336.528 518.838 336.8 519.094C337.073 519.347 337.29 519.682 337.452 520.099C337.614 520.517 337.695 521.031 337.695 521.642V522.068H332.65V521.199H336.673C336.673 520.83 336.599 520.5 336.451 520.21C336.306 519.92 336.099 519.692 335.829 519.524C335.562 519.357 335.246 519.273 334.883 519.273C334.482 519.273 334.136 519.372 333.843 519.571C333.553 519.767 333.33 520.023 333.174 520.338C333.018 520.653 332.94 520.991 332.94 521.352V521.932C332.94 522.426 333.025 522.845 333.195 523.189C333.369 523.53 333.609 523.79 333.915 523.969C334.222 524.145 334.579 524.233 334.985 524.233C335.249 524.233 335.488 524.196 335.701 524.122C335.917 524.045 336.103 523.932 336.259 523.781C336.415 523.628 336.536 523.437 336.621 523.21L337.593 523.483C337.491 523.812 337.319 524.102 337.077 524.352C336.836 524.599 336.538 524.793 336.183 524.932C335.827 525.068 335.428 525.136 334.985 525.136ZM339.799 518.455L341.368 521.131L342.936 518.455H344.095L341.981 521.727L344.095 525H342.936L341.368 522.46L339.799 525H338.64L340.72 521.727L338.64 518.455H339.799ZM346.263 525.068C346.053 525.068 345.872 524.993 345.722 524.842C345.571 524.692 345.496 524.511 345.496 524.301C345.496 524.091 345.571 523.911 345.722 523.76C345.872 523.609 346.053 523.534 346.263 523.534C346.473 523.534 346.653 523.609 346.804 523.76C346.955 523.911 347.03 524.091 347.03 524.301C347.03 524.44 346.994 524.568 346.923 524.685C346.855 524.801 346.763 524.895 346.646 524.966C346.533 525.034 346.405 525.068 346.263 525.068ZM348.835 518.455H349.84V525.477C349.84 525.881 349.771 526.23 349.631 526.526C349.495 526.821 349.288 527.05 349.009 527.212C348.734 527.374 348.386 527.455 347.965 527.455C347.931 527.455 347.897 527.455 347.863 527.455C347.829 527.455 347.795 527.455 347.761 527.455V526.517C347.795 526.517 347.826 526.517 347.854 526.517C347.883 526.517 347.914 526.517 347.948 526.517C348.255 526.517 348.479 526.426 348.621 526.244C348.763 526.065 348.835 525.81 348.835 525.477V518.455ZM349.329 517.364C349.133 517.364 348.964 517.297 348.822 517.163C348.683 517.03 348.613 516.869 348.613 516.682C348.613 516.494 348.683 516.334 348.822 516.2C348.964 516.067 349.133 516 349.329 516C349.525 516 349.692 516.067 349.832 516.2C349.974 516.334 350.045 516.494 350.045 516.682C350.045 516.869 349.974 517.03 349.832 517.163C349.692 517.297 349.525 517.364 349.329 517.364ZM356.319 519.92L355.415 520.176C355.358 520.026 355.275 519.879 355.164 519.737C355.056 519.592 354.908 519.473 354.721 519.379C354.533 519.286 354.293 519.239 354 519.239C353.6 519.239 353.266 519.331 352.999 519.516C352.735 519.697 352.603 519.929 352.603 520.21C352.603 520.46 352.694 520.658 352.875 520.803C353.057 520.947 353.341 521.068 353.728 521.165L354.699 521.403C355.284 521.545 355.721 521.763 356.007 522.055C356.294 522.345 356.438 522.719 356.438 523.176C356.438 523.551 356.33 523.886 356.114 524.182C355.901 524.477 355.603 524.71 355.219 524.881C354.836 525.051 354.39 525.136 353.881 525.136C353.213 525.136 352.661 524.991 352.223 524.702C351.786 524.412 351.509 523.989 351.392 523.432L352.347 523.193C352.438 523.545 352.61 523.81 352.863 523.986C353.118 524.162 353.452 524.25 353.864 524.25C354.333 524.25 354.705 524.151 354.98 523.952C355.259 523.75 355.398 523.509 355.398 523.227C355.398 523 355.319 522.81 355.159 522.656C355 522.5 354.756 522.384 354.426 522.307L353.336 522.051C352.736 521.909 352.296 521.689 352.015 521.391C351.736 521.089 351.597 520.713 351.597 520.261C351.597 519.892 351.701 519.565 351.908 519.281C352.118 518.997 352.404 518.774 352.765 518.612C353.128 518.45 353.54 518.369 354 518.369C354.648 518.369 355.157 518.511 355.526 518.795C355.898 519.08 356.162 519.455 356.319 519.92Z" fill="#CCCCCC"/>
<path d="M309 513H294V528H309V513Z" fill="#DD9B1A"/>
<path d="M376 530C379.866 530 383 526.866 383 523C383 519.134 379.866 516 376 516C372.134 516 369 519.134 369 523C369 526.866 372.134 530 376 530Z" fill="#1E1E1E"/>
<path d="M373 520L379 526" stroke="#CCCCCC"/>
<path d="M379 520L373 526" stroke="#CCCCCC"/>
<path d="M550 533H289V625H550V533Z" fill="#1E1E1E"/>
<path d="M319 533H289V625H319V533Z" fill="#252526"/>
<path d="M302.972 544.273V553H301.915V545.381H301.864L299.733 546.795V545.722L301.915 544.273H302.972Z" fill="#858585"/>
<path d="M332.58 553.136C331.966 553.136 331.438 552.991 330.994 552.702C330.551 552.412 330.21 552.013 329.972 551.504C329.733 550.996 329.614 550.415 329.614 549.761C329.614 549.097 329.736 548.51 329.98 548.001C330.227 547.49 330.571 547.091 331.011 546.804C331.455 546.514 331.972 546.369 332.562 546.369C333.023 546.369 333.438 546.455 333.807 546.625C334.176 546.795 334.479 547.034 334.714 547.341C334.95 547.648 335.097 548.006 335.153 548.415H334.148C334.071 548.116 333.901 547.852 333.636 547.622C333.375 547.389 333.023 547.273 332.58 547.273C332.188 547.273 331.844 547.375 331.548 547.58C331.256 547.781 331.027 548.067 330.862 548.436C330.7 548.803 330.619 549.233 330.619 549.727C330.619 550.233 330.699 550.673 330.858 551.048C331.02 551.423 331.247 551.714 331.54 551.922C331.835 552.129 332.182 552.233 332.58 552.233C332.841 552.233 333.078 552.188 333.291 552.097C333.504 552.006 333.685 551.875 333.832 551.705C333.98 551.534 334.085 551.33 334.148 551.091H335.153C335.097 551.477 334.956 551.825 334.732 552.135C334.51 552.442 334.216 552.686 333.849 552.868C333.486 553.047 333.063 553.136 332.58 553.136ZM339.283 553.136C338.692 553.136 338.173 552.996 337.727 552.714C337.284 552.433 336.938 552.04 336.688 551.534C336.44 551.028 336.317 550.437 336.317 549.761C336.317 549.08 336.44 548.484 336.688 547.976C336.938 547.467 337.284 547.072 337.727 546.791C338.173 546.51 338.692 546.369 339.283 546.369C339.874 546.369 340.391 546.51 340.834 546.791C341.28 547.072 341.626 547.467 341.874 547.976C342.124 548.484 342.249 549.08 342.249 549.761C342.249 550.437 342.124 551.028 341.874 551.534C341.626 552.04 341.28 552.433 340.834 552.714C340.391 552.996 339.874 553.136 339.283 553.136ZM339.283 552.233C339.732 552.233 340.101 552.118 340.391 551.888C340.68 551.658 340.895 551.355 341.034 550.98C341.173 550.605 341.243 550.199 341.243 549.761C341.243 549.324 341.173 548.916 341.034 548.538C340.895 548.161 340.68 547.855 340.391 547.622C340.101 547.389 339.732 547.273 339.283 547.273C338.834 547.273 338.464 547.389 338.175 547.622C337.885 547.855 337.67 548.161 337.531 548.538C337.392 548.916 337.322 549.324 337.322 549.761C337.322 550.199 337.392 550.605 337.531 550.98C337.67 551.355 337.885 551.658 338.175 551.888C338.464 552.118 338.834 552.233 339.283 552.233ZM344.789 549.062V553H343.784V546.455H344.755V547.477H344.841C344.994 547.145 345.227 546.878 345.539 546.676C345.852 546.472 346.255 546.369 346.75 546.369C347.193 546.369 347.581 546.46 347.913 546.642C348.245 546.821 348.504 547.094 348.689 547.46C348.873 547.824 348.966 548.284 348.966 548.841V553H347.96V548.909C347.96 548.395 347.826 547.994 347.559 547.707C347.292 547.418 346.926 547.273 346.46 547.273C346.139 547.273 345.852 547.342 345.599 547.482C345.349 547.621 345.152 547.824 345.007 548.091C344.862 548.358 344.789 548.682 344.789 549.062ZM355.44 547.92L354.536 548.176C354.479 548.026 354.396 547.879 354.285 547.737C354.177 547.592 354.029 547.473 353.842 547.379C353.654 547.286 353.414 547.239 353.121 547.239C352.721 547.239 352.387 547.331 352.12 547.516C351.856 547.697 351.724 547.929 351.724 548.21C351.724 548.46 351.815 548.658 351.996 548.803C352.178 548.947 352.462 549.068 352.849 549.165L353.82 549.403C354.406 549.545 354.842 549.763 355.129 550.055C355.415 550.345 355.559 550.719 355.559 551.176C355.559 551.551 355.451 551.886 355.235 552.182C355.022 552.477 354.724 552.71 354.34 552.881C353.957 553.051 353.511 553.136 353.002 553.136C352.335 553.136 351.782 552.991 351.344 552.702C350.907 552.412 350.63 551.989 350.513 551.432L351.468 551.193C351.559 551.545 351.731 551.81 351.984 551.986C352.239 552.162 352.573 552.25 352.985 552.25C353.454 552.25 353.826 552.151 354.102 551.952C354.38 551.75 354.519 551.509 354.519 551.227C354.519 551 354.44 550.81 354.281 550.656C354.121 550.5 353.877 550.384 353.548 550.307L352.457 550.051C351.857 549.909 351.417 549.689 351.136 549.391C350.857 549.089 350.718 548.713 350.718 548.261C350.718 547.892 350.822 547.565 351.029 547.281C351.239 546.997 351.525 546.774 351.886 546.612C352.249 546.45 352.661 546.369 353.121 546.369C353.769 546.369 354.278 546.511 354.647 546.795C355.019 547.08 355.283 547.455 355.44 547.92ZM359.732 553.136C359.141 553.136 358.623 552.996 358.176 552.714C357.733 552.433 357.387 552.04 357.137 551.534C356.89 551.028 356.766 550.437 356.766 549.761C356.766 549.08 356.89 548.484 357.137 547.976C357.387 547.467 357.733 547.072 358.176 546.791C358.623 546.51 359.141 546.369 359.732 546.369C360.323 546.369 360.84 546.51 361.283 546.791C361.729 547.072 362.076 547.467 362.323 547.976C362.573 548.484 362.698 549.08 362.698 549.761C362.698 550.437 362.573 551.028 362.323 551.534C362.076 552.04 361.729 552.433 361.283 552.714C360.84 552.996 360.323 553.136 359.732 553.136ZM359.732 552.233C360.181 552.233 360.55 552.118 360.84 551.888C361.13 551.658 361.344 551.355 361.483 550.98C361.623 550.605 361.692 550.199 361.692 549.761C361.692 549.324 361.623 548.916 361.483 548.538C361.344 548.161 361.13 547.855 360.84 547.622C360.55 547.389 360.181 547.273 359.732 547.273C359.283 547.273 358.914 547.389 358.624 547.622C358.334 547.855 358.12 548.161 357.98 548.538C357.841 548.916 357.772 549.324 357.772 549.761C357.772 550.199 357.841 550.605 357.98 550.98C358.12 551.355 358.334 551.658 358.624 551.888C358.914 552.118 359.283 552.233 359.732 552.233ZM365.239 544.273V553H364.233V544.273H365.239ZM369.825 553.136C369.194 553.136 368.65 552.997 368.193 552.719C367.738 552.438 367.387 552.045 367.14 551.543C366.896 551.037 366.774 550.449 366.774 549.778C366.774 549.108 366.896 548.517 367.14 548.006C367.387 547.491 367.731 547.091 368.172 546.804C368.615 546.514 369.132 546.369 369.723 546.369C370.064 546.369 370.4 546.426 370.733 546.54C371.065 546.653 371.368 546.838 371.64 547.094C371.913 547.347 372.13 547.682 372.292 548.099C372.454 548.517 372.535 549.031 372.535 549.642V550.068H367.49V549.199H371.512C371.512 548.83 371.439 548.5 371.291 548.21C371.146 547.92 370.939 547.692 370.669 547.524C370.402 547.357 370.086 547.273 369.723 547.273C369.322 547.273 368.975 547.372 368.683 547.571C368.393 547.767 368.17 548.023 368.014 548.338C367.858 548.653 367.779 548.991 367.779 549.352V549.932C367.779 550.426 367.865 550.845 368.035 551.189C368.208 551.53 368.449 551.79 368.755 551.969C369.062 552.145 369.419 552.233 369.825 552.233C370.089 552.233 370.328 552.196 370.541 552.122C370.757 552.045 370.943 551.932 371.099 551.781C371.255 551.628 371.376 551.437 371.461 551.21L372.433 551.483C372.331 551.812 372.159 552.102 371.917 552.352C371.676 552.599 371.377 552.793 371.022 552.932C370.667 553.068 370.268 553.136 369.825 553.136Z" fill="#569CD6"/>
<path d="M380.653 553.068C380.443 553.068 380.263 552.993 380.112 552.842C379.962 552.692 379.886 552.511 379.886 552.301C379.886 552.091 379.962 551.911 380.112 551.76C380.263 551.609 380.443 551.534 380.653 551.534C380.864 551.534 381.044 551.609 381.195 551.76C381.345 551.911 381.42 552.091 381.42 552.301C381.42 552.44 381.385 552.568 381.314 552.685C381.246 552.801 381.153 552.895 381.037 552.966C380.923 553.034 380.795 553.068 380.653 553.068Z" fill="#D4D4D4"/>
<path d="M388.926 544.273V553H387.92V544.273H388.926ZM393.427 553.136C392.836 553.136 392.318 552.996 391.872 552.714C391.429 552.433 391.082 552.04 390.832 551.534C390.585 551.028 390.461 550.437 390.461 549.761C390.461 549.08 390.585 548.484 390.832 547.976C391.082 547.467 391.429 547.072 391.872 546.791C392.318 546.51 392.836 546.369 393.427 546.369C394.018 546.369 394.535 546.51 394.978 546.791C395.424 547.072 395.771 547.467 396.018 547.976C396.268 548.484 396.393 549.08 396.393 549.761C396.393 550.437 396.268 551.028 396.018 551.534C395.771 552.04 395.424 552.433 394.978 552.714C394.535 552.996 394.018 553.136 393.427 553.136ZM393.427 552.233C393.876 552.233 394.245 552.118 394.535 551.888C394.825 551.658 395.039 551.355 395.179 550.98C395.318 550.605 395.387 550.199 395.387 549.761C395.387 549.324 395.318 548.916 395.179 548.538C395.039 548.161 394.825 547.855 394.535 547.622C394.245 547.389 393.876 547.273 393.427 547.273C392.978 547.273 392.609 547.389 392.319 547.622C392.029 547.855 391.815 548.161 391.676 548.538C391.537 548.916 391.467 549.324 391.467 549.761C391.467 550.199 391.537 550.605 391.676 550.98C391.815 551.355 392.029 551.658 392.319 551.888C392.609 552.118 392.978 552.233 393.427 552.233ZM400.57 555.591C400.085 555.591 399.667 555.528 399.317 555.403C398.968 555.281 398.677 555.119 398.444 554.918C398.214 554.719 398.031 554.506 397.894 554.278L398.695 553.716C398.786 553.835 398.901 553.972 399.04 554.125C399.18 554.281 399.37 554.416 399.612 554.53C399.856 554.646 400.175 554.705 400.57 554.705C401.099 554.705 401.535 554.577 401.879 554.321C402.222 554.065 402.394 553.665 402.394 553.119V551.79H402.309C402.235 551.909 402.13 552.057 401.994 552.233C401.86 552.406 401.667 552.561 401.414 552.697C401.164 552.831 400.826 552.898 400.4 552.898C399.871 552.898 399.397 552.773 398.977 552.523C398.559 552.273 398.228 551.909 397.984 551.432C397.742 550.955 397.621 550.375 397.621 549.693C397.621 549.023 397.739 548.439 397.975 547.942C398.211 547.442 398.539 547.055 398.96 546.783C399.38 546.507 399.866 546.369 400.417 546.369C400.843 546.369 401.181 546.44 401.431 546.582C401.684 546.722 401.877 546.881 402.011 547.06C402.147 547.236 402.252 547.381 402.326 547.494H402.428V546.455H403.4V553.188C403.4 553.75 403.272 554.207 403.016 554.56C402.763 554.915 402.423 555.175 401.994 555.339C401.567 555.507 401.093 555.591 400.57 555.591ZM400.536 551.994C400.94 551.994 401.281 551.902 401.559 551.717C401.837 551.533 402.049 551.267 402.194 550.92C402.339 550.574 402.411 550.159 402.411 549.676C402.411 549.205 402.34 548.788 402.198 548.428C402.056 548.067 401.846 547.784 401.567 547.58C401.289 547.375 400.945 547.273 400.536 547.273C400.11 547.273 399.755 547.381 399.471 547.597C399.19 547.812 398.978 548.102 398.836 548.466C398.697 548.83 398.627 549.233 398.627 549.676C398.627 550.131 398.698 550.533 398.84 550.882C398.985 551.229 399.198 551.501 399.479 551.7C399.763 551.896 400.116 551.994 400.536 551.994Z" fill="#DCDCAA"/>
<path d="M410.278 549.318C410.278 548.244 410.418 547.257 410.696 546.357C410.977 545.453 411.378 544.622 411.898 543.864H412.784C412.58 544.145 412.388 544.491 412.209 544.903C412.033 545.312 411.878 545.763 411.744 546.254C411.611 546.743 411.506 547.249 411.429 547.771C411.355 548.294 411.318 548.81 411.318 549.318C411.318 549.994 411.384 550.68 411.514 551.376C411.645 552.072 411.821 552.719 412.043 553.315C412.264 553.912 412.511 554.398 412.784 554.773H411.898C411.378 554.014 410.977 553.185 410.696 552.284C410.418 551.381 410.278 550.392 410.278 549.318Z" fill="#D4D4D4"/>
<path d="M418.79 544.273V547.273H417.852V544.273H418.79ZM423.24 553.136C422.626 553.136 422.098 552.991 421.654 552.702C421.211 552.412 420.87 552.013 420.632 551.504C420.393 550.996 420.274 550.415 420.274 549.761C420.274 549.097 420.396 548.51 420.64 548.001C420.887 547.49 421.231 547.091 421.672 546.804C422.115 546.514 422.632 546.369 423.223 546.369C423.683 546.369 424.098 546.455 424.467 546.625C424.836 546.795 425.139 547.034 425.375 547.341C425.61 547.648 425.757 548.006 425.814 548.415H424.808C424.731 548.116 424.561 547.852 424.297 547.622C424.035 547.389 423.683 547.273 423.24 547.273C422.848 547.273 422.504 547.375 422.208 547.58C421.916 547.781 421.687 548.067 421.522 548.436C421.36 548.803 421.279 549.233 421.279 549.727C421.279 550.233 421.359 550.673 421.518 551.048C421.68 551.423 421.907 551.714 422.2 551.922C422.495 552.129 422.842 552.233 423.24 552.233C423.501 552.233 423.738 552.188 423.951 552.097C424.164 552.006 424.345 551.875 424.493 551.705C424.64 551.534 424.745 551.33 424.808 551.091H425.814C425.757 551.477 425.616 551.825 425.392 552.135C425.17 552.442 424.876 552.686 424.51 552.868C424.146 553.047 423.723 553.136 423.24 553.136ZM428.289 549.062V553H427.284V544.273H428.289V547.477H428.375C428.528 547.139 428.758 546.871 429.065 546.672C429.375 546.47 429.787 546.369 430.301 546.369C430.747 546.369 431.137 546.459 431.473 546.638C431.808 546.814 432.068 547.085 432.252 547.452C432.44 547.815 432.534 548.278 432.534 548.841V553H431.528V548.909C431.528 548.389 431.393 547.987 431.123 547.703C430.856 547.416 430.485 547.273 430.011 547.273C429.681 547.273 429.386 547.342 429.125 547.482C428.866 547.621 428.662 547.824 428.511 548.091C428.363 548.358 428.289 548.682 428.289 549.062ZM436.3 553.153C435.885 553.153 435.509 553.075 435.17 552.919C434.832 552.76 434.564 552.531 434.365 552.233C434.166 551.932 434.067 551.568 434.067 551.142C434.067 550.767 434.141 550.463 434.288 550.23C434.436 549.994 434.634 549.81 434.881 549.676C435.128 549.543 435.401 549.443 435.699 549.378C436 549.31 436.303 549.256 436.607 549.216C437.004 549.165 437.327 549.126 437.574 549.101C437.824 549.072 438.006 549.026 438.119 548.96C438.236 548.895 438.294 548.781 438.294 548.619V548.585C438.294 548.165 438.179 547.838 437.949 547.605C437.722 547.372 437.376 547.256 436.913 547.256C436.433 547.256 436.057 547.361 435.784 547.571C435.511 547.781 435.32 548.006 435.209 548.244L434.254 547.903C434.425 547.506 434.652 547.196 434.936 546.974C435.223 546.75 435.536 546.594 435.874 546.506C436.214 546.415 436.55 546.369 436.879 546.369C437.089 546.369 437.331 546.395 437.604 546.446C437.879 546.494 438.145 546.595 438.401 546.749C438.659 546.902 438.874 547.134 439.044 547.443C439.214 547.753 439.3 548.168 439.3 548.688V553H438.294V552.114H438.243C438.175 552.256 438.061 552.408 437.902 552.57C437.743 552.732 437.531 552.869 437.267 552.983C437.003 553.097 436.68 553.153 436.3 553.153ZM436.453 552.25C436.851 552.25 437.186 552.172 437.459 552.016C437.734 551.859 437.942 551.658 438.081 551.411C438.223 551.163 438.294 550.903 438.294 550.631V549.71C438.251 549.761 438.158 549.808 438.013 549.851C437.871 549.891 437.706 549.926 437.518 549.957C437.334 549.986 437.153 550.011 436.977 550.034C436.804 550.054 436.663 550.071 436.555 550.085C436.294 550.119 436.05 550.175 435.822 550.251C435.598 550.325 435.416 550.437 435.277 550.588C435.141 550.736 435.072 550.937 435.072 551.193C435.072 551.543 435.202 551.807 435.46 551.986C435.722 552.162 436.053 552.25 436.453 552.25ZM441.135 553V546.455H442.141V553H441.135ZM441.647 545.364C441.451 545.364 441.282 545.297 441.14 545.163C441 545.03 440.931 544.869 440.931 544.682C440.931 544.494 441 544.334 441.14 544.2C441.282 544.067 441.451 544 441.647 544C441.843 544 442.01 544.067 442.15 544.2C442.292 544.334 442.363 544.494 442.363 544.682C442.363 544.869 442.292 545.03 442.15 545.163C442.01 545.297 441.843 545.364 441.647 545.364ZM449.284 553.153C448.869 553.153 448.493 553.075 448.155 552.919C447.817 552.76 447.548 552.531 447.349 552.233C447.151 551.932 447.051 551.568 447.051 551.142C447.051 550.767 447.125 550.463 447.273 550.23C447.42 549.994 447.618 549.81 447.865 549.676C448.112 549.543 448.385 549.443 448.683 549.378C448.984 549.31 449.287 549.256 449.591 549.216C449.989 549.165 450.311 549.126 450.558 549.101C450.808 549.072 450.99 549.026 451.104 548.96C451.22 548.895 451.278 548.781 451.278 548.619V548.585C451.278 548.165 451.163 547.838 450.933 547.605C450.706 547.372 450.361 547.256 449.898 547.256C449.418 547.256 449.041 547.361 448.768 547.571C448.496 547.781 448.304 548.006 448.193 548.244L447.239 547.903C447.409 547.506 447.636 547.196 447.92 546.974C448.207 546.75 448.52 546.594 448.858 546.506C449.199 546.415 449.534 546.369 449.864 546.369C450.074 546.369 450.315 546.395 450.588 546.446C450.864 546.494 451.129 546.595 451.385 546.749C451.643 546.902 451.858 547.134 452.028 547.443C452.199 547.753 452.284 548.168 452.284 548.688V553H451.278V552.114H451.227C451.159 552.256 451.045 552.408 450.886 552.57C450.727 552.732 450.516 552.869 450.251 552.983C449.987 553.097 449.665 553.153 449.284 553.153ZM449.438 552.25C449.835 552.25 450.17 552.172 450.443 552.016C450.719 551.859 450.926 551.658 451.065 551.411C451.207 551.163 451.278 550.903 451.278 550.631V549.71C451.236 549.761 451.142 549.808 450.997 549.851C450.855 549.891 450.69 549.926 450.503 549.957C450.318 549.986 450.138 550.011 449.962 550.034C449.788 550.054 449.648 550.071 449.54 550.085C449.278 550.119 449.034 550.175 448.807 550.251C448.582 550.325 448.401 550.437 448.261 550.588C448.125 550.736 448.057 550.937 448.057 551.193C448.057 551.543 448.186 551.807 448.445 551.986C448.706 552.162 449.037 552.25 449.438 552.25ZM458.245 550.324V546.455H459.25V553H458.245V551.892H458.176C458.023 552.224 457.784 552.507 457.461 552.74C457.137 552.97 456.728 553.085 456.233 553.085C455.824 553.085 455.461 552.996 455.142 552.817C454.824 552.635 454.574 552.362 454.392 551.999C454.211 551.632 454.12 551.17 454.12 550.614V546.455H455.125V550.545C455.125 551.023 455.259 551.403 455.526 551.688C455.796 551.972 456.14 552.114 456.557 552.114C456.807 552.114 457.061 552.05 457.32 551.922C457.581 551.794 457.8 551.598 457.976 551.334C458.155 551.07 458.245 550.733 458.245 550.324ZM461.092 553V546.455H462.064V547.443H462.132C462.251 547.119 462.467 546.857 462.78 546.655C463.092 546.453 463.445 546.352 463.837 546.352C463.911 546.352 464.003 546.354 464.114 546.357C464.224 546.359 464.308 546.364 464.365 546.369V547.392C464.331 547.384 464.253 547.371 464.131 547.354C464.011 547.334 463.885 547.324 463.751 547.324C463.433 547.324 463.149 547.391 462.899 547.524C462.652 547.655 462.456 547.837 462.311 548.07C462.169 548.3 462.098 548.562 462.098 548.858V553H461.092ZM471.591 553.136C470.978 553.136 470.449 552.991 470.006 552.702C469.563 552.412 469.222 552.013 468.983 551.504C468.745 550.996 468.625 550.415 468.625 549.761C468.625 549.097 468.748 548.51 468.992 548.001C469.239 547.49 469.583 547.091 470.023 546.804C470.466 546.514 470.983 546.369 471.574 546.369C472.034 546.369 472.449 546.455 472.819 546.625C473.188 546.795 473.49 547.034 473.726 547.341C473.962 547.648 474.108 548.006 474.165 548.415H473.159C473.083 548.116 472.912 547.852 472.648 547.622C472.387 547.389 472.034 547.273 471.591 547.273C471.199 547.273 470.855 547.375 470.56 547.58C470.267 547.781 470.039 548.067 469.874 548.436C469.712 548.803 469.631 549.233 469.631 549.727C469.631 550.233 469.711 550.673 469.87 551.048C470.032 551.423 470.259 551.714 470.551 551.922C470.847 552.129 471.194 552.233 471.591 552.233C471.853 552.233 472.09 552.188 472.303 552.097C472.516 552.006 472.696 551.875 472.844 551.705C472.992 551.534 473.097 551.33 473.159 551.091H474.165C474.108 551.477 473.968 551.825 473.743 552.135C473.522 552.442 473.228 552.686 472.861 552.868C472.498 553.047 472.074 553.136 471.591 553.136ZM478.294 553.136C477.703 553.136 477.185 552.996 476.739 552.714C476.296 552.433 475.949 552.04 475.699 551.534C475.452 551.028 475.328 550.437 475.328 549.761C475.328 549.08 475.452 548.484 475.699 547.976C475.949 547.467 476.296 547.072 476.739 546.791C477.185 546.51 477.703 546.369 478.294 546.369C478.885 546.369 479.402 546.51 479.846 546.791C480.292 547.072 480.638 547.467 480.885 547.976C481.135 548.484 481.26 549.08 481.26 549.761C481.26 550.437 481.135 551.028 480.885 551.534C480.638 552.04 480.292 552.433 479.846 552.714C479.402 552.996 478.885 553.136 478.294 553.136ZM478.294 552.233C478.743 552.233 479.113 552.118 479.402 551.888C479.692 551.658 479.907 551.355 480.046 550.98C480.185 550.605 480.255 550.199 480.255 549.761C480.255 549.324 480.185 548.916 480.046 548.538C479.907 548.161 479.692 547.855 479.402 547.622C479.113 547.389 478.743 547.273 478.294 547.273C477.846 547.273 477.476 547.389 477.186 547.622C476.897 547.855 476.682 548.161 476.543 548.538C476.404 548.916 476.334 549.324 476.334 549.761C476.334 550.199 476.404 550.605 476.543 550.98C476.682 551.355 476.897 551.658 477.186 551.888C477.476 552.118 477.846 552.233 478.294 552.233ZM485.267 553.136C484.722 553.136 484.24 552.999 483.822 552.723C483.405 552.445 483.078 552.053 482.842 551.547C482.607 551.038 482.489 550.438 482.489 549.744C482.489 549.057 482.607 548.46 482.842 547.955C483.078 547.449 483.406 547.058 483.827 546.783C484.247 546.507 484.733 546.369 485.284 546.369C485.71 546.369 486.047 546.44 486.294 546.582C486.544 546.722 486.734 546.881 486.865 547.06C486.999 547.236 487.102 547.381 487.176 547.494H487.261V544.273H488.267V553H487.295V551.994H487.176C487.102 552.114 486.997 552.264 486.861 552.446C486.724 552.625 486.53 552.786 486.277 552.928C486.024 553.067 485.688 553.136 485.267 553.136ZM485.403 552.233C485.807 552.233 486.148 552.128 486.426 551.918C486.705 551.705 486.916 551.411 487.061 551.036C487.206 550.658 487.278 550.222 487.278 549.727C487.278 549.239 487.207 548.811 487.065 548.445C486.923 548.075 486.713 547.788 486.435 547.584C486.156 547.376 485.813 547.273 485.403 547.273C484.977 547.273 484.622 547.382 484.338 547.601C484.057 547.817 483.845 548.111 483.703 548.483C483.564 548.852 483.494 549.267 483.494 549.727C483.494 550.193 483.565 550.616 483.707 550.997C483.852 551.375 484.065 551.676 484.347 551.901C484.631 552.122 484.983 552.233 485.403 552.233ZM492.993 553.136C492.362 553.136 491.818 552.997 491.361 552.719C490.906 552.438 490.555 552.045 490.308 551.543C490.064 551.037 489.942 550.449 489.942 549.778C489.942 549.108 490.064 548.517 490.308 548.006C490.555 547.491 490.899 547.091 491.339 546.804C491.783 546.514 492.3 546.369 492.891 546.369C493.232 546.369 493.568 546.426 493.901 546.54C494.233 546.653 494.536 546.838 494.808 547.094C495.081 547.347 495.298 547.682 495.46 548.099C495.622 548.517 495.703 549.031 495.703 549.642V550.068H490.658V549.199H494.68C494.68 548.83 494.607 548.5 494.459 548.21C494.314 547.92 494.107 547.692 493.837 547.524C493.57 547.357 493.254 547.273 492.891 547.273C492.49 547.273 492.143 547.372 491.851 547.571C491.561 547.767 491.338 548.023 491.182 548.338C491.026 548.653 490.947 548.991 490.947 549.352V549.932C490.947 550.426 491.033 550.845 491.203 551.189C491.376 551.53 491.616 551.79 491.923 551.969C492.23 552.145 492.587 552.233 492.993 552.233C493.257 552.233 493.496 552.196 493.709 552.122C493.925 552.045 494.111 551.932 494.267 551.781C494.423 551.628 494.544 551.437 494.629 551.21L495.601 551.483C495.499 551.812 495.327 552.102 495.085 552.352C494.844 552.599 494.545 552.793 494.19 552.932C493.835 553.068 493.436 553.136 492.993 553.136ZM498.102 544.273V547.273H497.165V544.273H498.102Z" fill="#CE9178"/>
<path d="M502.068 549.318C502.068 550.392 501.928 551.381 501.646 552.284C501.368 553.185 500.969 554.014 500.449 554.773H499.562C499.767 554.491 499.957 554.145 500.134 553.733C500.313 553.324 500.469 552.875 500.602 552.386C500.736 551.895 500.839 551.388 500.913 550.865C500.99 550.339 501.028 549.824 501.028 549.318C501.028 548.642 500.963 547.956 500.832 547.26C500.702 546.564 500.526 545.918 500.304 545.321C500.082 544.724 499.835 544.239 499.562 543.864H500.449C500.969 544.622 501.368 545.453 501.646 546.357C501.928 547.257 502.068 548.244 502.068 549.318ZM505.768 551.807L505.7 552.267C505.652 552.591 505.578 552.938 505.478 553.307C505.382 553.676 505.281 554.024 505.176 554.351C505.071 554.678 504.984 554.938 504.916 555.131H504.149C504.186 554.949 504.234 554.709 504.294 554.411C504.353 554.112 504.413 553.778 504.473 553.409C504.535 553.043 504.586 552.668 504.626 552.284L504.677 551.807H505.768ZM505.154 548.21C504.944 548.21 504.764 548.135 504.613 547.984C504.463 547.834 504.387 547.653 504.387 547.443C504.387 547.233 504.463 547.053 504.613 546.902C504.764 546.751 504.944 546.676 505.154 546.676C505.365 546.676 505.545 546.751 505.696 546.902C505.846 547.053 505.922 547.233 505.922 547.443C505.922 547.582 505.886 547.71 505.815 547.827C505.747 547.943 505.654 548.037 505.538 548.108C505.424 548.176 505.297 548.21 505.154 548.21Z" fill="#D4D4D4"/>
<path d="M550 605H289V625H550V605Z" fill="#007ACC"/>
<path d="M303.031 612H304V617.719C304 618.229 303.906 618.663 303.719 619.02C303.531 619.376 303.267 619.647 302.926 619.832C302.585 620.017 302.182 620.109 301.719 620.109C301.281 620.109 300.892 620.03 300.551 619.871C300.21 619.71 299.941 619.48 299.746 619.184C299.551 618.887 299.453 618.534 299.453 618.125H300.406C300.406 618.352 300.462 618.549 300.574 618.719C300.689 618.885 300.845 619.016 301.043 619.109C301.241 619.203 301.466 619.25 301.719 619.25C301.997 619.25 302.234 619.191 302.43 619.074C302.625 618.957 302.773 618.785 302.875 618.559C302.979 618.329 303.031 618.049 303.031 617.719V612ZM307.582 620.141C307.202 620.141 306.857 620.069 306.547 619.926C306.237 619.78 305.991 619.57 305.809 619.297C305.626 619.021 305.535 618.687 305.535 618.297C305.535 617.953 305.603 617.674 305.738 617.461C305.874 617.245 306.055 617.076 306.281 616.953C306.508 616.831 306.758 616.74 307.031 616.68C307.307 616.617 307.585 616.568 307.863 616.531C308.228 616.484 308.523 616.449 308.75 616.426C308.979 616.4 309.146 616.357 309.25 616.297C309.357 616.237 309.41 616.133 309.41 615.984V615.953C309.41 615.568 309.305 615.268 309.094 615.055C308.885 614.841 308.569 614.734 308.145 614.734C307.704 614.734 307.359 614.831 307.109 615.023C306.859 615.216 306.684 615.422 306.582 615.641L305.707 615.328C305.863 614.964 306.072 614.68 306.332 614.477C306.595 614.271 306.882 614.128 307.191 614.047C307.504 613.964 307.811 613.922 308.113 613.922C308.306 613.922 308.527 613.945 308.777 613.992C309.03 614.036 309.273 614.129 309.508 614.27C309.745 614.41 309.941 614.622 310.098 614.906C310.254 615.19 310.332 615.57 310.332 616.047V620H309.41V619.187H309.363C309.301 619.318 309.197 619.457 309.051 619.605C308.905 619.754 308.711 619.88 308.469 619.984C308.227 620.089 307.931 620.141 307.582 620.141ZM307.723 619.312C308.087 619.312 308.395 619.241 308.645 619.098C308.897 618.954 309.087 618.77 309.215 618.543C309.345 618.316 309.41 618.078 309.41 617.828V616.984C309.371 617.031 309.285 617.074 309.152 617.113C309.022 617.15 308.871 617.182 308.699 617.211C308.53 617.237 308.365 617.26 308.203 617.281C308.044 617.299 307.915 617.315 307.816 617.328C307.577 617.359 307.353 617.41 307.145 617.48C306.939 617.548 306.772 617.651 306.645 617.789C306.52 617.924 306.457 618.109 306.457 618.344C306.457 618.664 306.576 618.906 306.813 619.07C307.052 619.232 307.355 619.312 307.723 619.312ZM316.706 614L314.487 620H313.55L311.331 614H312.331L313.987 618.781H314.05L315.706 614H316.706ZM319.506 620.141C319.126 620.141 318.781 620.069 318.471 619.926C318.161 619.78 317.915 619.57 317.732 619.297C317.55 619.021 317.459 618.687 317.459 618.297C317.459 617.953 317.527 617.674 317.662 617.461C317.798 617.245 317.979 617.076 318.205 616.953C318.432 616.831 318.682 616.74 318.955 616.68C319.231 616.617 319.508 616.568 319.787 616.531C320.152 616.484 320.447 616.449 320.674 616.426C320.903 616.4 321.07 616.357 321.174 616.297C321.281 616.237 321.334 616.133 321.334 615.984V615.953C321.334 615.568 321.229 615.268 321.018 615.055C320.809 614.841 320.493 614.734 320.068 614.734C319.628 614.734 319.283 614.831 319.033 615.023C318.783 615.216 318.607 615.422 318.506 615.641L317.631 615.328C317.787 614.964 317.995 614.68 318.256 614.477C318.519 614.271 318.805 614.128 319.115 614.047C319.428 613.964 319.735 613.922 320.037 613.922C320.23 613.922 320.451 613.945 320.701 613.992C320.954 614.036 321.197 614.129 321.432 614.27C321.669 614.41 321.865 614.622 322.021 614.906C322.178 615.19 322.256 615.57 322.256 616.047V620H321.334V619.187H321.287C321.225 619.318 321.12 619.457 320.975 619.605C320.829 619.754 320.635 619.88 320.393 619.984C320.15 620.089 319.855 620.141 319.506 620.141ZM319.646 619.312C320.011 619.312 320.318 619.241 320.568 619.098C320.821 618.954 321.011 618.77 321.139 618.543C321.269 618.316 321.334 618.078 321.334 617.828V616.984C321.295 617.031 321.209 617.074 321.076 617.113C320.946 617.15 320.795 617.182 320.623 617.211C320.454 617.237 320.288 617.26 320.127 617.281C319.968 617.299 319.839 617.315 319.74 617.328C319.501 617.359 319.277 617.41 319.068 617.48C318.863 617.548 318.696 617.651 318.568 617.789C318.443 617.924 318.381 618.109 318.381 618.344C318.381 618.664 318.499 618.906 318.736 619.07C318.976 619.232 319.279 619.312 319.646 619.312ZM328.438 614C328.392 613.604 328.201 613.297 327.868 613.078C327.535 612.859 327.126 612.75 326.642 612.75C326.287 612.75 325.978 612.807 325.712 612.922C325.449 613.036 325.243 613.194 325.095 613.395C324.949 613.595 324.876 613.823 324.876 614.078C324.876 614.292 324.927 614.475 325.028 614.629C325.132 614.78 325.265 614.906 325.427 615.008C325.588 615.107 325.757 615.189 325.935 615.254C326.112 615.316 326.274 615.367 326.423 615.406L327.235 615.625C327.444 615.68 327.675 615.755 327.931 615.852C328.188 615.948 328.435 616.079 328.669 616.246C328.906 616.41 329.101 616.621 329.255 616.879C329.409 617.137 329.485 617.453 329.485 617.828C329.485 618.26 329.372 618.651 329.146 619C328.922 619.349 328.593 619.626 328.161 619.832C327.731 620.038 327.209 620.141 326.595 620.141C326.022 620.141 325.526 620.048 325.106 619.863C324.69 619.678 324.362 619.421 324.122 619.09C323.885 618.759 323.751 618.375 323.72 617.938H324.72C324.746 618.24 324.847 618.49 325.024 618.687C325.204 618.883 325.431 619.029 325.704 619.125C325.98 619.219 326.277 619.266 326.595 619.266C326.965 619.266 327.297 619.206 327.591 619.086C327.885 618.964 328.118 618.794 328.29 618.578C328.462 618.359 328.548 618.104 328.548 617.812C328.548 617.547 328.474 617.331 328.325 617.164C328.177 616.997 327.981 616.862 327.739 616.758C327.497 616.654 327.235 616.562 326.954 616.484L325.97 616.203C325.345 616.023 324.85 615.767 324.485 615.434C324.121 615.1 323.938 614.664 323.938 614.125C323.938 613.677 324.06 613.286 324.302 612.953C324.547 612.617 324.875 612.357 325.286 612.172C325.7 611.984 326.162 611.891 326.673 611.891C327.188 611.891 327.647 611.983 328.048 612.168C328.449 612.35 328.767 612.6 329.001 612.918C329.238 613.236 329.363 613.596 329.376 614H328.438ZM333.391 620.125C332.828 620.125 332.344 619.992 331.938 619.727C331.531 619.461 331.219 619.095 331 618.629C330.781 618.163 330.672 617.63 330.672 617.031C330.672 616.422 330.784 615.884 331.008 615.418C331.234 614.949 331.549 614.583 331.953 614.32C332.359 614.055 332.833 613.922 333.375 613.922C333.797 613.922 334.177 614 334.516 614.156C334.854 614.312 335.132 614.531 335.348 614.812C335.564 615.094 335.698 615.422 335.75 615.797H334.828C334.758 615.523 334.602 615.281 334.359 615.07C334.12 614.857 333.797 614.75 333.391 614.75C333.031 614.75 332.716 614.844 332.445 615.031C332.177 615.216 331.967 615.478 331.816 615.816C331.668 616.152 331.594 616.547 331.594 617C331.594 617.464 331.667 617.867 331.813 618.211C331.961 618.555 332.169 618.822 332.438 619.012C332.708 619.202 333.026 619.297 333.391 619.297C333.63 619.297 333.848 619.255 334.043 619.172C334.238 619.089 334.404 618.969 334.539 618.812C334.674 618.656 334.771 618.469 334.828 618.25H335.75C335.698 618.604 335.569 618.923 335.363 619.207C335.16 619.488 334.891 619.712 334.555 619.879C334.221 620.043 333.833 620.125 333.391 620.125ZM337.098 620V614H337.988V614.906H338.051C338.16 614.609 338.358 614.368 338.645 614.184C338.931 613.999 339.254 613.906 339.613 613.906C339.681 613.906 339.766 613.908 339.867 613.91C339.969 613.913 340.046 613.917 340.098 613.922V614.859C340.066 614.852 339.995 614.84 339.883 614.824C339.773 614.806 339.658 614.797 339.535 614.797C339.243 614.797 338.983 614.858 338.754 614.98C338.527 615.1 338.348 615.267 338.215 615.48C338.085 615.691 338.02 615.932 338.02 616.203V620H337.098ZM341.19 620V614H342.112V620H341.19ZM341.659 613C341.479 613 341.325 612.939 341.194 612.816C341.067 612.694 341.003 612.547 341.003 612.375C341.003 612.203 341.067 612.056 341.194 611.934C341.325 611.811 341.479 611.75 341.659 611.75C341.839 611.75 341.993 611.811 342.12 611.934C342.25 612.056 342.315 612.203 342.315 612.375C342.315 612.547 342.25 612.694 342.12 612.816C341.993 612.939 341.839 613 341.659 613ZM343.801 622.25V614H344.691V614.953H344.801C344.868 614.849 344.962 614.716 345.082 614.555C345.204 614.391 345.379 614.245 345.605 614.117C345.835 613.987 346.145 613.922 346.535 613.922C347.04 613.922 347.486 614.048 347.871 614.301C348.257 614.553 348.557 614.911 348.773 615.375C348.99 615.839 349.098 616.385 349.098 617.016C349.098 617.651 348.99 618.202 348.773 618.668C348.557 619.132 348.258 619.491 347.875 619.746C347.492 619.999 347.051 620.125 346.551 620.125C346.165 620.125 345.857 620.061 345.625 619.934C345.393 619.803 345.215 619.656 345.09 619.492C344.965 619.326 344.868 619.187 344.801 619.078H344.723V622.25H343.801ZM344.707 617C344.707 617.453 344.773 617.853 344.906 618.199C345.039 618.543 345.233 618.812 345.488 619.008C345.743 619.201 346.056 619.297 346.426 619.297C346.811 619.297 347.133 619.195 347.391 618.992C347.651 618.786 347.846 618.51 347.977 618.164C348.109 617.815 348.176 617.427 348.176 617C348.176 616.578 348.111 616.198 347.98 615.859C347.853 615.518 347.659 615.249 347.398 615.051C347.141 614.85 346.816 614.75 346.426 614.75C346.051 614.75 345.736 614.845 345.48 615.035C345.225 615.223 345.033 615.486 344.902 615.824C344.772 616.16 344.707 616.552 344.707 617ZM353.113 614V614.781H350.004V614H353.113ZM350.91 612.562H351.832V618.281C351.832 618.542 351.87 618.737 351.945 618.867C352.023 618.995 352.122 619.081 352.242 619.125C352.365 619.167 352.493 619.187 352.629 619.187C352.73 619.187 352.814 619.182 352.879 619.172C352.944 619.159 352.996 619.148 353.035 619.141L353.223 619.969C353.16 619.992 353.073 620.016 352.961 620.039C352.849 620.065 352.707 620.078 352.535 620.078C352.275 620.078 352.02 620.022 351.77 619.91C351.522 619.798 351.316 619.628 351.152 619.398C350.991 619.169 350.91 618.88 350.91 618.531V612.562Z" fill="white"/>
</g>
<defs>
<clipPath id="clip0_0_1">
<rect width="261" height="147" fill="white" transform="translate(289 478)"/>
</clipPath>
</defs>
</svg>
